<?xml version="1.0" encoding="UTF-8"?>
<svg width="24px" height="24px" viewBox="0 0 24 24" version="1.1" xmlns="http://www.w3.org/2000/svg">
    <g stroke="none" stroke-width="1" fill="none" fill-rule="evenodd">
        <path d="M14,12 C14,13.1 13.1,14 12,14 C10.9,14 10,13.1 10,12 C10,10.9 10.9,10 12,10 C13.1,10 14,10.9 14,12 Z M8.5,12 C8.5,14.2 10.3,16 12.5,16 C14.7,16 16.5,14.2 16.5,12 C16.5,9.8 14.7,8 12.5,8 C10.3,8 8.5,9.8 8.5,12 Z M6.5,12 C6.5,8.7 9.2,6 12.5,6 C15.8,6 18.5,8.7 18.5,12 C18.5,15.3 15.8,18 12.5,18 C9.2,18 6.5,15.3 6.5,12 Z" fill="#FFFFFF"></path>
    </g>
</svg>
