<svg width="81" height="20" viewBox="0 0 81 20" fill="none" xmlns="http://www.w3.org/2000/svg">
<g clip-path="url(#clip0_1_477)">
<path d="M35.9084 19.1299C38.9684 19.1299 40.1884 17.8899 40.1884 14.7799C40.1884 12.2599 38.9484 11.2499 36.9184 9.50994C35.1484 8.00994 34.3784 7.42994 34.3784 5.65994C34.3784 4.28994 34.8984 3.74994 35.9984 3.74994C37.1784 3.74994 37.5784 4.54994 37.4884 6.89994L39.8784 6.74994C40.2984 3.40994 39.0984 1.82994 36.1184 1.82994C33.2784 1.82994 31.8584 3.09994 31.8584 5.80994C31.8584 8.43994 32.7284 9.40994 34.9984 11.1999C36.4984 12.3899 37.6484 13.3399 37.6484 15.2299C37.6484 16.7199 37.1084 17.2699 36.0084 17.2699C34.7984 17.2699 34.3384 16.4399 34.4284 14.2899L32.0384 14.3299C31.5484 17.5499 32.7584 19.1299 35.9084 19.1299Z" fill="white"/>
<path d="M44.2098 19.0899C44.9098 19.0899 45.9398 18.9699 46.7898 18.5899L46.4698 16.9799C46.1098 17.0899 45.7498 17.1399 45.3498 17.1399C44.6498 17.1399 44.5298 16.6799 44.5298 15.6699V8.51994H46.5498V6.53994H44.4098V3.12994H42.5098L42.1398 6.53994H40.8598V8.51994H42.0198V16.0099C42.0198 17.8999 42.2098 19.0899 44.2098 19.0899Z" fill="white"/>
<path d="M50.3571 19.0899C51.8172 19.0899 52.7271 18.4799 53.4771 17.3799H53.5871L53.6971 18.8999H55.6871V6.53994H53.0471V16.4699C52.7671 16.9599 52.1171 17.3199 51.5071 17.3199C50.7371 17.3199 50.4971 16.7099 50.4971 15.6899V6.53994H47.8671V15.8099C47.8671 17.8199 48.4471 19.0899 50.3571 19.0899Z" fill="white"/>
<path d="M63.1287 4.70994C63.1287 5.50994 63.1687 6.36994 63.2487 7.47994H63.1387C62.5787 6.69994 61.6687 6.29994 60.4787 6.29994C58.1987 6.29994 57.5887 8.49994 57.5887 11.6199V13.5399C57.5887 17.1399 58.1687 19.0999 60.4387 19.0999C61.8887 19.0999 62.7687 18.3399 63.3287 17.3099H63.3487L63.6887 18.8999H65.6987V1.43994H63.1287V4.70994ZM63.1287 15.9699C62.9187 16.7499 62.2287 17.2799 61.5787 17.2699C60.6187 17.2399 60.2687 16.1899 60.2687 13.6499V11.7999C60.2687 9.21994 60.6087 8.04994 61.7387 8.04994C62.2687 8.04994 62.8287 8.42994 63.1287 8.95994V15.9699Z" fill="white"/>
<path d="M69.0851 4.96994C69.9851 4.96994 70.4051 4.66994 70.4051 3.42994C70.4051 2.26994 69.9551 1.90994 69.0851 1.90994C68.2051 1.90994 67.7751 2.22994 67.7751 3.42994C67.7751 4.66994 68.1851 4.96994 69.0851 4.96994ZM67.8651 18.8999H70.3951V6.53994H67.8651V18.8999Z" fill="white"/>
<path d="M76.2409 6.29994C73.2109 6.29994 72.1709 8.04994 72.1709 11.8199V13.6099C72.1709 16.9899 72.8209 19.1099 76.1809 19.1099C79.4909 19.1099 80.2009 17.0899 80.2009 13.6099V11.8199C80.2009 8.44994 79.5209 6.29994 76.2409 6.29994ZM77.5309 14.7199C77.5309 16.3599 77.2409 17.3899 76.1909 17.3899C75.1609 17.3899 74.8709 16.3499 74.8709 14.7199V10.6799C74.8709 9.27994 75.0709 8.02994 76.1909 8.02994C77.3709 8.02994 77.5309 9.34994 77.5309 10.6799V14.7199Z" fill="white"/>
<path d="M14.4848 20C14.4848 20 23.5695 20 25.8229 19.4C27.0917 19.06 28.0459 18.08 28.3808 16.87C29 14.65 29 9.98 29 9.98C29 9.98 29 5.34 28.3808 3.14C28.0459 1.9 27.0917 0.94 25.8229 0.61C23.5695 0 14.4848 0 14.4848 0C14.4848 0 5.42037 0 3.17711 0.61C1.9286 0.94 0.954148 1.9 0.59888 3.14C0 5.34 0 9.98 0 9.98C0 9.98 0 14.65 0.59888 16.87C0.954148 18.08 1.9286 19.06 3.17711 19.4C5.42037 20 14.4848 20 14.4848 20Z" fill="#FF0033"/>
<path d="M19 10L11.5 5.75V14.25L19 10Z" fill="white"/>
</g>
<defs>
<clipPath id="clip0_1_477">
<rect width="81" height="20" fill="white"/>
</clipPath>
</defs>
</svg>